<?xml version="1.0" standalone="no"?>
<!DOCTYPE svg PUBLIC "-//W3C//DTD SVG 20010904//EN"
 "http://www.w3.org/TR/2001/REC-SVG-20010904/DTD/svg10.dtd">
<svg version="1.0" xmlns="http://www.w3.org/2000/svg"
 width="600.000000pt" height="600.000000pt" viewBox="0 0 600.000000 600.000000"
 preserveAspectRatio="xMidYMid meet">
<metadata>
Created by potrace 1.11, written by Peter Selinger 2001-2013
</metadata>
<g transform="translate(0.000000,600.000000) scale(0.100000,-0.100000)"
fill="#000000" stroke="none">
<path d="M2300 4400 c-8 -5 -22 -11 -30 -14 -8 -3 -36 -18 -62 -33 -60 -36
-155 -91 -195 -114 -17 -10 -50 -29 -72 -43 -22 -15 -43 -26 -46 -26 -3 0 -29
-15 -58 -33 -29 -18 -59 -36 -67 -40 -8 -4 -37 -21 -65 -38 -27 -16 -58 -33
-67 -36 -10 -3 -18 -9 -18 -14 0 -5 -5 -9 -11 -9 -6 0 -52 -24 -102 -54 -51
-29 -110 -64 -132 -76 -22 -12 -47 -28 -55 -34 -8 -7 -31 -20 -50 -30 -41 -20
-64 -33 -107 -63 -17 -13 -36 -23 -40 -23 -16 0 -91 -85 -113 -128 -12 -23
-26 -45 -31 -48 -12 -7 -12 -194 0 -194 5 0 19 -20 31 -45 21 -44 106 -129
145 -146 11 -5 38 -20 60 -34 22 -14 47 -28 55 -32 8 -3 39 -21 68 -40 29 -18
59 -33 67 -33 8 0 15 -4 15 -10 0 -5 19 -19 43 -30 23 -11 63 -32 89 -47 26
-16 104 -62 175 -103 70 -41 137 -80 148 -87 11 -7 27 -15 35 -19 8 -4 39 -22
68 -41 29 -18 59 -33 67 -33 8 0 15 -4 15 -8 0 -5 19 -18 43 -30 23 -12 65
-36 92 -52 28 -16 66 -37 85 -46 19 -9 43 -20 52 -25 23 -12 134 -11 156 0 9
6 29 12 44 15 14 3 49 24 77 46 119 94 158 255 93 390 -19 41 -111 140 -128
140 -7 0 -19 6 -26 13 -16 14 -42 29 -113 66 -27 14 -64 36 -82 49 -17 12 -34
22 -38 22 -3 0 -30 15 -60 34 -29 19 -80 49 -112 66 -32 17 -76 42 -98 56 -22
14 -52 30 -67 37 -47 19 -42 27 57 81 28 16 55 32 60 36 6 4 37 22 70 40 33
18 74 41 90 52 17 10 39 22 50 28 11 5 38 21 60 34 22 14 56 33 75 44 93 51
116 65 131 78 8 8 20 14 26 14 16 0 85 81 104 121 53 111 52 182 -5 298 -23
48 -120 141 -147 141 -10 0 -21 5 -24 10 -8 12 -204 12 -225 0z"/>
<path d="M3420 4400 c0 -5 -7 -10 -16 -10 -24 0 -111 -67 -131 -101 -10 -16
-20 -29 -24 -29 -6 0 -22 -49 -39 -122 -7 -34 -7 -60 1 -95 29 -120 84 -186
211 -256 25 -14 64 -37 87 -51 22 -14 45 -26 50 -26 5 0 16 -6 23 -12 8 -7 23
-18 33 -24 11 -6 41 -22 67 -37 25 -14 64 -37 87 -51 22 -14 43 -26 45 -26 5
0 127 -71 196 -115 54 -33 150 -90 205 -121 28 -15 64 -35 80 -45 17 -10 53
-30 80 -44 28 -15 57 -33 65 -40 8 -7 41 -24 72 -39 128 -59 300 -16 385 96
49 64 63 108 63 196 0 153 -50 219 -260 341 -76 45 -142 81 -146 81 -4 0 -15
6 -23 14 -14 12 -46 31 -136 80 -11 6 -27 16 -35 22 -8 7 -37 24 -65 38 -27
15 -59 32 -69 39 -11 7 -44 27 -72 45 -29 17 -55 32 -57 32 -2 0 -43 23 -91
50 -48 28 -90 50 -93 50 -4 0 -14 6 -22 14 -9 8 -38 26 -66 42 -27 15 -63 35
-80 45 -101 62 -125 69 -227 69 -59 0 -98 -4 -98 -10z"/>
<path d="M2384 2041 c-31 -14 -64 -60 -64 -90 0 -36 23 -66 62 -81 92 -36 98
-41 98 -76 0 -59 -66 -83 -125 -44 -28 18 -44 14 -45 -12 0 -15 61 -38 102
-38 52 0 85 21 104 66 12 29 12 39 0 68 -12 28 -25 38 -72 56 -33 12 -64 26
-71 32 -20 16 -15 55 9 72 28 20 55 20 90 2 23 -12 29 -12 38 -1 24 29 -79 66
-126 46z"/>
<path d="M2695 2041 c-107 -27 -156 -147 -105 -258 25 -57 69 -83 140 -83 64
0 124 29 114 55 -4 9 -9 14 -13 12 -72 -39 -118 -42 -168 -11 -29 18 -57 95
-49 136 17 93 88 136 174 106 25 -9 49 -15 54 -12 42 26 -80 72 -147 55z"/>
<path d="M1970 1870 l0 -170 83 0 c108 0 161 25 195 90 19 36 22 55 18 99 -5
60 -26 94 -76 129 -28 19 -46 22 -126 22 l-94 0 0 -170z m185 126 c48 -20 68
-65 63 -139 -4 -52 -9 -64 -36 -88 -29 -26 -40 -29 -97 -29 l-65 0 0 135 0
135 50 0 c28 0 66 -6 85 -14z"/>
<path d="M3020 1870 c0 -163 1 -170 20 -170 19 0 20 7 20 170 0 163 -1 170
-20 170 -19 0 -20 -7 -20 -170z"/>
<path d="M3160 1870 l0 -170 100 0 c93 0 100 1 100 20 0 18 -7 20 -80 20 l-80
0 0 60 0 60 65 0 c51 0 65 3 65 15 0 12 -14 15 -65 15 l-65 0 0 60 0 60 80 0
c64 0 80 3 80 15 0 12 -18 15 -100 15 l-100 0 0 -170z"/>
<path d="M3430 1871 c0 -164 1 -171 20 -171 18 0 20 8 22 136 l3 135 61 -108
c34 -59 67 -109 75 -111 9 -1 37 39 74 108 l60 111 3 -135 c2 -128 4 -136 22
-136 19 0 20 7 20 170 l0 170 -24 0 c-24 0 -47 -35 -139 -213 l-14 -28 -66
118 c-54 99 -69 119 -91 121 l-26 3 0 -170z"/>
</g>
</svg>
