<?xml version="1.0" encoding="utf-8"?>
<!-- Generator: Adobe Illustrator 23.0.1, SVG Export Plug-In . SVG Version: 6.00 Build 0)  -->
<svg version="1.1" id="Layer_1_1_" xmlns="http://www.w3.org/2000/svg" xmlns:xlink="http://www.w3.org/1999/xlink" x="0px" y="0px"
	 viewBox="0 0 512 512" style="enable-background:new 0 0 512 512;" xml:space="preserve">
<style type="text/css">
	.st0{fill:#4286F5;}
</style>
<path class="st0" d="M341.3,140.4c2.3,0,4.4-0.9,6-2.4l99.9-96.7h15.1c3.5,9.6,12.9,16.5,24,16.5c14.1,0,25.6-11.1,25.6-24.8
	S500.5,8.3,486.4,8.3c-11.1,0-20.5,6.9-24,16.5h-18.6c-2.3,0-4.4,0.9-6,2.4l-99.9,96.7h-13.5v-8.3c0-13.7-11.5-24.8-25.6-24.8
	c-14.1,0-25.6,11.1-25.6,24.8v24.8h-43.5c-4-18.8-21.2-33-41.8-33c-10.7,0-20.3,4-27.8,10.3l-79-58.4c2.7-5.5,4.4-11.5,4.4-18
	C85.3,18.5,66.2,0,42.7,0S0,18.5,0,41.3s19.1,41.3,42.7,41.3c10.7,0,20.3-4,27.8-10.3l79,58.4c-1.5,3.1-2.8,6.3-3.6,9.7H84.5
	c-4-18.8-21.2-33-41.8-33C19.1,107.4,0,125.9,0,148.6s19.1,41.3,42.7,41.3c10.7,0,20.3-4,27.8-10.3l30.6,22.6L70.5,225
	c-7.5-6.3-17.2-10.3-27.8-10.3C19.1,214.7,0,233.2,0,256s19.1,41.3,42.7,41.3c10.7,0,20.3-4,27.8-10.3l30.6,22.6l-30.6,22.6
	c-7.5-6.3-17.2-10.3-27.8-10.3C19.1,322.1,0,340.6,0,363.4s19.1,41.3,42.7,41.3c20.6,0,37.8-14.2,41.8-33h61.5
	c0.7,3.4,2,6.6,3.6,9.7l-79,58.4c-7.5-6.3-17.2-10.2-27.8-10.2C19.1,429.4,0,447.9,0,470.7S19.1,512,42.7,512s42.7-18.5,42.7-41.3
	c0-6.5-1.7-12.5-4.4-17.9l79-58.4c7.5,6.3,17.2,10.2,27.8,10.2c20.6,0,37.8-14.2,41.8-33h43.5v16.5c0,13.7,11.5,24.8,25.6,24.8
	c14.1,0,25.6-11.1,25.6-24.8h13.5l99.9,96.7c1.6,1.6,3.8,2.4,6,2.4h18.6c3.5,9.6,12.9,16.5,24,16.5c14.1,0,25.6-11.1,25.6-24.8
	s-11.5-24.8-25.6-24.8c-11.1,0-20.5,6.9-24,16.5h-15.1L347.4,374c-1.6-1.6-3.8-2.4-6-2.4h-17.1v-24.8h39.1l65.8,63.6
	c1.6,1.6,3.8,2.4,6,2.4h27.2c3.5,9.6,12.9,16.5,24,16.5c14.1,0,25.6-11.1,25.6-24.8c0-13.7-11.5-24.8-25.6-24.8
	c-11.1,0-20.5,6.9-24,16.5h-23.6L373,332.7c-1.6-1.6-3.8-2.4-6-2.4h-42.7v-24.8h73.3l31.6,30.6c1.6,1.6,3.8,2.4,6,2.4h27.2
	c3.5,9.6,12.9,16.5,24,16.5c14.1,0,25.6-11.1,25.6-24.8c0-13.7-11.5-24.8-25.6-24.8c-11.1,0-20.5,6.9-24,16.5h-23.6l-31.6-30.6
	c-1.6-1.6-3.8-2.4-6-2.4h-76.8v-24.8h138.1c3.5,9.6,12.9,16.5,24,16.5c14.1,0,25.6-11.1,25.6-24.8c0-13.7-11.5-24.8-25.6-24.8
	c-11.1,0-20.5,6.9-24,16.5H324.3V223h76.8c2.3,0,4.4-0.9,6-2.4l31.6-30.6h23.6c3.5,9.6,12.9,16.5,24,16.5
	c14.1,0,25.6-11.1,25.6-24.8c0-13.7-11.5-24.8-25.6-24.8c-11.1,0-20.5,6.9-24,16.5h-27.2c-2.3,0-4.4,0.9-6,2.4l-31.6,30.6h-73.3
	v-24.8h42.7c2.3,0,4.4-0.9,6-2.4l65.8-63.6h23.6c3.5,9.6,12.9,16.5,24,16.5c14.1,0,25.6-11.1,25.6-24.8s-11.5-24.8-25.6-24.8
	c-11.1,0-20.5,6.9-24,16.5h-27.2c-2.3,0-4.4,0.9-6,2.4l-65.8,63.6h-39.1v-24.8H341.3z M486.4,24.8c4.7,0,8.5,3.7,8.5,8.3
	s-3.8,8.3-8.5,8.3c-4.7,0-8.5-3.7-8.5-8.3S481.7,24.8,486.4,24.8z M486.4,470.7c4.7,0,8.5,3.7,8.5,8.3s-3.8,8.3-8.5,8.3
	c-4.7,0-8.5-3.7-8.5-8.3S481.7,470.7,486.4,470.7z M486.4,396.4c4.7,0,8.5,3.7,8.5,8.3c0,4.6-3.8,8.3-8.5,8.3
	c-4.7,0-8.5-3.7-8.5-8.3C477.9,400.1,481.7,396.4,486.4,396.4z M486.4,322.1c4.7,0,8.5,3.7,8.5,8.3s-3.8,8.3-8.5,8.3
	c-4.7,0-8.5-3.7-8.5-8.3S481.7,322.1,486.4,322.1z M486.4,247.7c4.7,0,8.5,3.7,8.5,8.3c0,4.6-3.8,8.3-8.5,8.3
	c-4.7,0-8.5-3.7-8.5-8.3S481.7,247.7,486.4,247.7z M486.4,173.4c4.7,0,8.5,3.7,8.5,8.3c0,4.6-3.8,8.3-8.5,8.3
	c-4.7,0-8.5-3.7-8.5-8.3C477.9,177.1,481.7,173.4,486.4,173.4z M486.4,99.1c4.7,0,8.5,3.7,8.5,8.3c0,4.6-3.8,8.3-8.5,8.3
	c-4.7,0-8.5-3.7-8.5-8.3C477.9,102.8,481.7,99.1,486.4,99.1z M229.5,156.9h43.5v90.8h-43.5c-4-18.8-21.2-33-41.8-33
	c-10.7,0-20.3,4-27.8,10.3l-30.6-22.6l30.6-22.6c7.5,6.3,17.2,10.3,27.8,10.3C208.3,189.9,225.6,175.7,229.5,156.9z M162.1,256
	c0-13.7,11.5-24.8,25.6-24.8c14.1,0,25.6,11.1,25.6,24.8c0,13.7-11.5,24.8-25.6,24.8C173.6,280.8,162.1,269.7,162.1,256z
	 M187.7,123.9c14.1,0,25.6,11.1,25.6,24.8c0,13.7-11.5,24.8-25.6,24.8c-14.1,0-25.6-11.1-25.6-24.8
	C162.1,135,173.6,123.9,187.7,123.9z M42.7,66.1c-14.1,0-25.6-11.1-25.6-24.8s11.5-24.8,25.6-24.8s25.6,11.1,25.6,24.8
	S56.8,66.1,42.7,66.1z M42.7,173.4c-14.1,0-25.6-11.1-25.6-24.8c0-13.7,11.5-24.8,25.6-24.8s25.6,11.1,25.6,24.8
	C68.3,162.3,56.8,173.4,42.7,173.4z M80.9,166.6c1.5-3.1,2.8-6.3,3.6-9.7h61.5c0.7,3.4,2,6.6,3.6,9.7l-34.3,25.3L80.9,166.6z
	 M149.5,238.1c-1.5,3.1-2.8,6.3-3.6,9.7H84.5c-0.7-3.4-2-6.6-3.6-9.7l34.3-25.3L149.5,238.1z M42.7,280.8
	c-14.1,0-25.6-11.1-25.6-24.8c0-13.7,11.5-24.8,25.6-24.8s25.6,11.1,25.6,24.8C68.3,269.7,56.8,280.8,42.7,280.8z M80.9,273.9
	c1.5-3.1,2.8-6.3,3.6-9.7h61.5c0.7,3.4,2,6.6,3.6,9.7l-34.3,25.3L80.9,273.9z M145.9,355.1H84.5c-0.7-3.4-2-6.6-3.6-9.7l34.3-25.3
	l34.3,25.3C147.9,348.5,146.7,351.7,145.9,355.1z M42.7,388.1c-14.1,0-25.6-11.1-25.6-24.8c0-13.7,11.5-24.8,25.6-24.8
	s25.6,11.1,25.6,24.8C68.3,377,56.8,388.1,42.7,388.1z M42.7,495.5c-14.1,0-25.6-11.1-25.6-24.8c0-13.7,11.5-24.8,25.6-24.8
	s25.6,11.1,25.6,24.8C68.3,484.4,56.8,495.5,42.7,495.5z M187.7,388.1c-14.1,0-25.6-11.1-25.6-24.8c0-13.7,11.5-24.8,25.6-24.8
	c14.1,0,25.6,11.1,25.6,24.8C213.3,377,201.8,388.1,187.7,388.1z M229.5,355.1c-4-18.8-21.2-33-41.8-33c-10.7,0-20.3,4-27.8,10.3
	l-30.6-22.6l30.6-22.6c7.5,6.3,17.2,10.3,27.8,10.3c20.6,0,37.8-14.2,41.8-33h43.5v90.8H229.5z M307.2,388.1c0,4.6-3.8,8.3-8.5,8.3
	c-4.7,0-8.5-3.7-8.5-8.3V115.6c0-4.6,3.8-8.3,8.5-8.3c4.7,0,8.5,3.7,8.5,8.3V388.1z"/>
<path class="st0" d="M241.1,181.7h17.1v16.5h-17.1V181.7z"/>
<path class="st0" d="M241.1,214.7h17.1v16.5h-17.1V214.7z"/>
<path class="st0" d="M241.1,280.8h17.1v16.5h-17.1V280.8z"/>
<path class="st0" d="M241.1,313.8h17.1v16.5h-17.1V313.8z"/>
</svg>
