<?xml version="1.0" encoding="utf-8"?>
<!-- Generator: Adobe Illustrator 23.0.1, SVG Export Plug-In . SVG Version: 6.00 Build 0)  -->
<svg version="1.1" id="Layer_1" xmlns="http://www.w3.org/2000/svg" xmlns:xlink="http://www.w3.org/1999/xlink" x="0px" y="0px"
	 viewBox="0 0 512 512" style="enable-background:new 0 0 512 512;" xml:space="preserve">
<style type="text/css">
	.st0{fill:#4286F5;}
</style>
<path class="st0" d="M206.7,43.8v84.3v0v0v96.9c0,28.9,23.6,52.5,52.5,52.5c28.9,0,52.5-23.6,52.5-52.5V43.7c3.1-1.1,6-2.9,8.4-5.3
	c4.3-4.3,6.6-9.9,6.6-15.9c0-0.4,0-0.7,0-1.1c-0.3-5.9-2.8-11.3-7.3-15.4c-4.3-3.9-9.8-6.1-15.6-6.1h-90c-6,0-11.7,2.3-15.9,6.6
	s-6.6,9.9-6.6,15.9s2.3,11.7,6.6,15.9C200.4,40.9,203.4,42.8,206.7,43.8z M213.8,15h90c2,0,4,0.8,5.5,2.1c1.5,1.4,2.3,3.1,2.4,5
	l0,0.1v0.3c0,4.1-3.4,7.5-7.5,7.5H275c-4.1,0-7.5,3.4-7.5,7.5c0,4.1,3.4,7.5,7.5,7.5h21.7v75.7h-52.5c-4.1,0-7.5,3.4-7.5,7.5
	c0,4.1,3.4,7.5,7.5,7.5h52.5v89.4c0,20.7-16.8,37.5-37.5,37.5s-37.5-16.8-37.5-37.5V45H245c4.1,0,7.5-3.4,7.5-7.5
	c0-4.1-3.4-7.5-7.5-7.5c-0.1,0-0.2,0-0.2,0c-14,0-14.4,0-31,0c-4.1,0-7.5-3.4-7.5-7.5C206.3,18.4,209.7,15,213.8,15z"/>
<path class="st0" d="M504.2,425.7l-69-119.2c-3.1-5.3-5.7-26.6-5.7-36.7v-51.4c10-2.3,17.6-11.2,17.6-21.9c0-0.4,0-0.7,0-1.1
	c-0.5-11.6-10.4-20.4-22.9-20.4h-76.7c-12.8,0-22.5,9.2-22.5,21.5c0,10.7,7.5,19.7,17.6,21.9v51.4c0,10.1-2.7,31.4-5.7,36.7
	l-69,119.2c-22.2,38.3,5.4,86.3,49.8,86.3h137C498.7,512,526.4,464,504.2,425.7z M454.4,497h-137c-32.7,0-53.2-35.4-36.8-63.8
	l69-119.2c5.9-10.2,7.7-37.4,7.7-44.2V219h19.9c4.1,0,7.5-3.4,7.5-7.5s-3.4-7.5-7.5-7.5h-30c-4.1,0-7.5-3.4-7.5-7.5
	c0-4.5,3.9-6.5,7.5-6.5H424c3.7,0,7.7,1.9,7.9,6.1c0,0.1,0,0.2,0,0.4c0,4.1-3.4,7.5-7.5,7.5h-17.2c-4.1,0-7.5,3.4-7.5,7.5
	s3.4,7.5,7.5,7.5h7.1v50.8c0,6.8,1.9,34,7.8,44.2l69,119.2C507.6,461.5,487.2,497,454.4,497z"/>
<path class="st0" d="M443.4,380.4c-2.1-3.6-6.7-4.8-10.3-2.7c-3.6,2.1-4.8,6.7-2.7,10.3l33.9,58.5c5.2,9-1.3,20.3-11.7,20.3H319.1
	c-10.4,0-16.9-11.3-11.7-20.3l31.7-54.7h72.7c4.1,0,7.5-3.4,7.5-7.5c0-4.1-3.4-7.5-7.5-7.5h-77c-2.7,0-5.1,1.4-6.5,3.7l-33.9,58.5
	c-11,19,2.7,42.8,24.7,42.8h133.5c22,0,35.7-23.8,24.7-42.8L443.4,380.4z"/>
<path class="st0" d="M373.4,408.5c0,4.1-3.4,7.5-7.5,7.5c-4.1,0-7.5-3.4-7.5-7.5c0-4.1,3.4-7.5,7.5-7.5
	C370,401,373.4,404.4,373.4,408.5z"/>
<path class="st0" d="M418.4,433.5c0,4.1-3.4,7.5-7.5,7.5c-4.1,0-7.5-3.4-7.5-7.5c0-4.1,3.4-7.5,7.5-7.5
	C415,426,418.4,429.4,418.4,433.5z"/>
<path class="st0" d="M383.4,448.5c0,4.1-3.4,7.5-7.5,7.5c-4.1,0-7.5-3.4-7.5-7.5c0-4.1,3.4-7.5,7.5-7.5
	C380,441,383.4,444.4,383.4,448.5z"/>
<path class="st0" d="M176,254.3v-35.4c10-2.2,17.6-11.1,17.6-21.9c0-12.5-10.4-22.5-22.9-22.5H93.9c-6,0-11.7,2.3-15.9,6.6
	s-6.6,9.9-6.6,15.9s2.3,11.7,6.6,15.9c3.1,3.1,6.9,5.1,11,6l0,35.4C35.7,272.8,0,323.1,0,379.5C0,452.6,59.4,512,132.5,512h0.4
	c72.8-0.2,132.1-59.7,132.1-132.5C265,323.1,229.2,272.9,176,254.3z M132.9,497C68,497.2,15,444.6,15,379.5c0-50,31.7-94.6,78.9-111
	c6.1-2.1,10.1-7.8,10.1-14.2v-34.8h13.3c0.1,0,0.2,0,0.2,0c4.1,0,7.5-3.4,7.5-7.5s-3.4-7.5-7.5-7.5H93.9c-4.1,0-7.5-3.4-7.5-7.5
	c0-4.1,3.4-7.5,7.5-7.5h76.7c4.1,0,7.9,3.2,7.9,7.5c0,4.1-3.4,7.5-7.5,7.5h-23.6c-4.1,0-7.5,3.4-7.5,7.5c0,4.1,3.4,7.5,7.5,7.5h0
	H161v34.8c0,6.4,4.1,12.1,10.1,14.2c47.2,16.4,78.9,61,78.9,111C250,444.1,197.5,496.8,132.9,497z"/>
<path class="st0" d="M187.5,333c-16.7,0-29.5,9.6-39.8,18.9c-3.1,2.8-3.3,7.5-0.5,10.6c2.8,3.1,7.5,3.3,10.6,0.5
	c11.7-10.7,20.3-15,29.7-15c17.4,0,33,14.1,32.5,34.1c-0.8,17.2-15.1,30.9-32.5,30.9c-19.1,0-33.9-18.3-49.6-37.7
	c-16-19.8-34.2-42.3-60.4-42.3c-12.5,0-24.3,4.8-33.2,13.5c-9.4,9.2-14.9,22-14.3,36.3c1.8,55.1,47.1,99.1,102.5,99.1h0.3
	c57.8-0.2,102.5-48.3,102.2-101.9C235.1,355.3,214.4,333,187.5,333z M132.8,467h-0.3c-51.9,0-88.4-43.4-87.5-87.3
	c0.4-17.5,15-31.7,32.5-31.7c19.1,0,34.2,18.7,48.8,36.7c17.2,21.3,35,43.3,61.2,43.3c7.4,0,14.5-1.7,20.8-4.8
	C193.1,449.3,165,466.9,132.8,467z"/>
<path class="st0" d="M80,384.5c0,4.1-3.4,7.5-7.5,7.5c-4.1,0-7.5-3.4-7.5-7.5s3.4-7.5,7.5-7.5C76.6,377,80,380.4,80,384.5z"/>
<path class="st0" d="M125,409.5c0,4.1-3.4,7.5-7.5,7.5s-7.5-3.4-7.5-7.5s3.4-7.5,7.5-7.5S125,405.4,125,409.5z"/>
<path class="st0" d="M90,424.5c0,4.1-3.4,7.5-7.5,7.5c-4.1,0-7.5-3.4-7.5-7.5s3.4-7.5,7.5-7.5C86.6,417,90,420.4,90,424.5z"/>
</svg>
