<?xml version="1.0" encoding="utf-8"?>
<!-- Generator: Adobe Illustrator 23.0.1, SVG Export Plug-In . SVG Version: 6.00 Build 0)  -->
<svg version="1.1" id="Layer_1" xmlns="http://www.w3.org/2000/svg" xmlns:xlink="http://www.w3.org/1999/xlink" x="0px" y="0px"
	 viewBox="0 0 511.9 511.9" style="enable-background:new 0 0 511.9 511.9;" xml:space="preserve">
<style type="text/css">
	.st0{fill:#4286F5;}
</style>
<g transform="translate(0 1)">
	<g>
		<g>
			<path class="st0" d="M503.3,110.2l-0.9-0.9c-11.5-11.5-31.8-11.5-43.3,0l-45.9,46.8c-2.6,2.6-6.2,2.6-8.8,0l-64.4-60
				c-6.2-5.3-14.1-8.8-23-8.8h-96.2c-2.6,0-4.4,0.9-5.3,1.8l-81.2,77.7c-11.5,12.4-12.4,31.8-1.8,43.3c5.3,6.2,13.2,9.7,22.1,9.7
				s16.8-3.5,22.1-9.7l57.4-60.9h20.3L120.2,299.1h-83c-20.3,0-36.2,15-37.1,33.5c-0.9,9.7,2.6,19.4,9.7,26.5
				c7.1,6.2,15.9,10.6,25.6,10.6H159c2.6,0,4.4-0.9,6.2-2.6l63.6-68l53,55.6l-15.9,102.4c-4.4,17.7,4.4,34.4,19.4,41.5
				c5.3,2.6,9.7,3.5,15,3.5s10.6-0.9,15.9-3.5c8.8-4.4,15.9-13.2,18.5-23.8l27.4-147.4c0-2.6-0.9-6.2-2.6-7.9l-73.3-73.3l58.3-58.3
				l40.6,40.6c11.5,11.5,30.9,11.5,42.4,0l75.9-75.9C514.8,141.1,514.8,121.7,503.3,110.2z M490.9,140.2L415,216.1
				c-5.3,4.4-13.2,4.4-17.7,0l-46.8-46.8c-3.5-3.5-8.8-3.5-12.4,0l-70.6,70.6c-1.8,1.8-2.6,3.5-2.6,6.2s0.9,4.4,3.5,7.1l75.9,75.9
				l-26.5,142.1c-1.8,4.4-5.3,8.8-9.7,11.5c-4.4,1.8-9.7,2.6-15,0c-7.9-3.5-11.5-12.4-9.7-22.1l16.8-107.7c0-2.6-0.9-5.3-2.6-7.1
				l-62.7-65.3c-1.8-1.8-3.5-2.6-6.2-2.6s-5.3,0.9-6.2,2.6l-67.1,71.5H35.4c-5.3,0-9.7-1.8-13.2-5.3c-2.6-3.5-4.4-7.9-4.4-13.2
				c0-9.7,8.8-16.8,19.4-16.8h86.5c2.6,0,4.4-0.9,6.2-0.9L280,148.1c2.6-2.6,2.6-6.2,1.8-9.7c-0.9-3.5-4.4-5.3-7.9-5.3h-44.1
				c-1.8,0-4.4,0.9-6.2,2.6l-60,63.6c-1.8,2.6-5.3,4.4-8.8,4.4s-7.1-1.8-9.7-4.4c-4.4-5.3-4.4-13.2,0.9-18.5l78.6-75h93.6
				c3.5,0,7.9,1.8,10.6,4.4l64.4,60c9.7,8.8,24.7,7.9,33.5-0.9l45.9-46.8c4.4-4.4,13.2-4.4,17.7,0l0.9,0.9
				C495.4,127.8,495.4,135.8,490.9,140.2z"/>
			<path class="st0" d="M406.2,113.7c29.1,0,53-23.8,53-53s-23.8-53-53-53s-53,23.8-53,53S377.1,113.7,406.2,113.7z M406.2,25.4
				c19.4,0,35.3,15.9,35.3,35.3c0,19.4-15.9,35.3-35.3,35.3s-35.3-15.9-35.3-35.3S386.8,25.4,406.2,25.4z"/>
		</g>
	</g>
</g>
</svg>
